<svg xmlns="http://www.w3.org/2000/svg" viewBox="0 0 512.005 512.005"><path fill="#f3f3f1" d="M266.667 192.003h-53.333V138.67c0-5.888-4.78-10.667-10.667-10.667S192 132.78 192 138.67V192h-53.333c-5.888 0-10.667 4.78-10.667 10.667s4.78 10.666 10.667 10.666H192v53.333c0 5.887 4.78 10.666 10.667 10.666s10.667-4.78 10.667-10.667v-53.334h53.333c5.888 0 10.667-4.78 10.667-10.667s-4.78-10.667-10.667-10.667z"/><path fill="#f3f3f1" d="M505.75 475.587l-145.6-145.6c28.202-34.837 45.183-79.104 45.183-127.317C405.333 90.926 314.41.003 202.666.003S0 90.925 0 202.67s90.923 202.666 202.667 202.666c48.213 0 92.48-16.98 127.317-45.184l145.6 145.6c4.16 4.16 9.62 6.25 15.083 6.25s10.923-2.09 15.083-6.25c8.34-8.34 8.34-21.824 0-30.165zM202.666 362.67c-88.235 0-160-71.766-160-160s71.765-160 160-160 160 71.764 160 160-71.766 160-160 160z"/></svg>